<svg width="15" height="17" viewBox="0 0 15 17" fill="none" xmlns="http://www.w3.org/2000/svg">
<path d="M3.80003 5.79999H0.965027V11.2H3.80003H4.34003V12.28H4.88003V13.36H5.42003V14.44H5.96003V15.52H6.50003V1.47999H5.96003V2.55999H5.42003V3.63999H4.88003V4.71999H4.34003V5.79999H3.80003Z" fill="black"/>
<path d="M6.50003 0.399994V1.47999M6.50003 16.6V15.52M6.50003 1.47999H5.96003V2.55999H5.42003V3.63999H4.88003V4.71999H4.34003V5.79999H3.80003H0.965027V11.2H3.80003H4.34003V12.28H4.88003V13.36H5.42003V14.44H5.96003V15.52H6.50003M6.50003 1.47999V15.52M9.20003 5.79999L14.6 3.23499M9.20003 8.49999H14.6M9.20003 11.2L14.6 13.9" stroke="black" stroke-width="0.27"/>
</svg>
