<svg width="20" height="24" viewBox="0 0 20 24" fill="none" xmlns="http://www.w3.org/2000/svg">
<path d="M4.19996 8.19998H0.209961V15.8H4.19996H4.95996V17.32H5.71996V18.84H6.47996V20.36H7.23996V21.88H7.99996V2.11998H7.23996V3.63998H6.47996V5.15998H5.71996V6.67998H4.95996V8.19998H4.19996Z" fill="black"/>
<path d="M7.99996 0.599976V2.11998M7.99996 23.4V21.88M7.99996 2.11998H7.23996V3.63998H6.47996V5.15998H5.71996V6.67998H4.95996V8.19998H4.19996H0.209961V15.8H4.19996H4.95996V17.32H5.71996V18.84H6.47996V20.36H7.23996V21.88H7.99996M7.99996 2.11998V21.88M11.8 8.19998L15.6 12M19.4 15.8L15.6 12M15.6 12L19.4 8.19998L11.8 15.8" stroke="black" stroke-width="0.38"/>
</svg>
