<svg width="22" height="22" viewBox="0 0 22 22" fill="none" xmlns="http://www.w3.org/2000/svg">
<path d="M13.2 0H11H8.8V1.1H7.7H6.16V2.2H4.4V3.3H3.08V4.4H2.2V5.5H1.54V6.6H0.880001V7.7H0.549999V8.8H0.219999H0V12.1V13.2H0.549999V14.3H0.880001V15.4H1.54V16.5H2.2V17.6H3.08V18.59H4.4V19.8H6.16V20.9H7.7H8.8V22H11H13.2V20.9H15.84V19.8H17.6V18.59H18.92V17.6H19.8V16.5H20.57V15.4H21.12V14.3H21.45V13.2H21.78V12.1H22V9.9H21.78V8.8H21.45V7.7H21.12V6.6H20.57V5.5H19.8V4.4H18.92V3.3H17.6V2.2H15.84V1.1H14.41H13.2V0Z" fill="black" stroke="black" stroke-width="0.22"/>
</svg>
