<svg width="55" height="55" viewBox="0 0 55 55" fill="none" xmlns="http://www.w3.org/2000/svg">
<rect width="55" height="55" fill="white"/>
<rect width="55" height="55" fill="#656BFF"/>
<g filter="url(#filter0_d)">
<path d="M5.38989 40.7V18.7V14.3H10.2788V9.9H15.1677V5.5H29.8343H44.501V9.9H24.9454H20.0566V14.3H15.1677V18.7H10.2788V36.3H15.1677V40.7H20.0566V45.1H39.6121H44.501V49.5H15.1677V45.1H10.2788V40.7H5.38989Z" fill="white"/>
<path d="M5.38989 40.7V18.7V14.3H10.2788V9.9H15.1677V5.5H29.8343H44.501V9.9H24.9454H20.0566V14.3H15.1677V18.7H10.2788V36.3H15.1677V40.7H20.0566V45.1H39.6121H44.501V49.5H15.1677V45.1H10.2788V40.7H5.38989Z" stroke="#656BFF" stroke-width="0.055"/>
</g>
<defs>
<filter id="filter0_d" x="5.3623" y="5.47253" width="44.0061" height="44.055" filterUnits="userSpaceOnUse" color-interpolation-filters="sRGB">
<feFlood flood-opacity="0" result="BackgroundImageFix"/>
<feColorMatrix in="SourceAlpha" type="matrix" values="0 0 0 0 0 0 0 0 0 0 0 0 0 0 0 0 0 0 127 0"/>
<feOffset dx="4.84"/>
<feColorMatrix type="matrix" values="0 0 0 0 0 0 0 0 0 0 0 0 0 0 0 0 0 0 0.25 0"/>
<feBlend mode="normal" in2="BackgroundImageFix" result="effect1_dropShadow"/>
<feBlend mode="normal" in="SourceGraphic" in2="effect1_dropShadow" result="shape"/>
</filter>
</defs>
</svg>
