<svg width="25" height="43" viewBox="0 0 25 43" fill="none" xmlns="http://www.w3.org/2000/svg">
<path d="M12.05 38.4861H8.16947V40.6229H12.05V38.4861Z" fill="black"/>
<path d="M12.05 34.1H8.16947V20.4917L21.0364 12.9565V5.98371L12.05 2.83469L3.8805 5.98371V9.13272H0.204237V4.63413L12.05 0.135526L24.5084 4.63413V13.7438L12.05 20.4917V34.1Z" fill="black"/>
<path fill-rule="evenodd" clip-rule="evenodd" d="M12.0471 0L24.7126 4.57338V13.7909L12.2542 20.5388V34.2124H7.96523V20.4471L20.8321 12.912V6.04544L12.0554 2.96988L4.08473 6.04226V9.24519H0V4.57507L12.0471 0ZM12.0528 0.271052L0.408473 4.69318V9.02026H3.67626V5.92515L12.0446 2.69949L21.2406 5.92197V13.0011L8.37371 20.5363V33.9875H11.8457V20.4446L24.3042 13.6967V4.69487L12.0528 0.271052ZM7.14829 38.0362H10.0076H13.0712V41.1852H10.0076H7.14829V38.0362ZM8.37371 38.5985V40.5105H11.8457V38.5985H8.37371Z" fill="black"/>
<path d="M13.0712 41.1852H10.0076V43L13.0712 41.1852Z" fill="black"/>
<path d="M7.14829 41.1852L10.0076 43V41.1852H7.14829Z" fill="black"/>
<path d="M10.0076 38.0362H13.0712L10.0076 36.7379V38.0362Z" fill="black"/>
<path d="M10.0076 36.7379L7.14829 38.0362H10.0076V36.7379Z" fill="black"/>
</svg>
